<?xml version="1.0" encoding="UTF-8"?>
<svg width="24" height="24" viewBox="0 0 24 24" xmlns="http://www.w3.org/2000/svg">
  <defs>
    <!-- Eye gradient -->
    <linearGradient id="eyeHideGradient" x1="0%" y1="0%" x2="0%" y2="100%">
      <stop offset="0%" stop-color="#86868b" stop-opacity="1" />
      <stop offset="100%" stop-color="#6d6d70" stop-opacity="1" />
    </linearGradient>
  </defs>
  
  <!-- Eye shape -->
  <path d="M17.94 17.94A10.07 10.07 0 0 1 12 20c-7 0-11-8-11-8a18.45 18.45 0 0 1 5.06-5.94M9.9 4.24A9.12 9.12 0 0 1 12 4c7 0 11 8 11 8a18.5 18.5 0 0 1-2.16 3.19m-6.72-1.07a3 3 0 1 1-4.24-4.24" 
        fill="none" 
        stroke="url(#eyeHideGradient)" 
        stroke-width="2" 
        stroke-linecap="round" 
        stroke-linejoin="round"/>
  
  <!-- Strike through line -->
  <line x1="1" y1="1" x2="23" y2="23" 
        stroke="url(#eyeHideGradient)" 
        stroke-width="2" 
        stroke-linecap="round"/>
</svg>
