<?xml version="1.0" encoding="UTF-8"?>
<svg width="32" height="32" viewBox="0 0 32 32" xmlns="http://www.w3.org/2000/svg">
  <defs>
    <linearGradient id="generateGradient" x1="0%" y1="0%" x2="100%" y2="100%">
      <stop offset="0%" style="stop-color:#FFD93D;stop-opacity:1" />
      <stop offset="100%" style="stop-color:#FF9500;stop-opacity:1" />
    </linearGradient>
    
    <filter id="generateGlow" x="-50%" y="-50%" width="200%" height="200%">
      <feDropShadow dx="0" dy="1" flood-color="#FF9500" flood-opacity="0.3" stdDeviation="2"/>
    </filter>
  </defs>
  
  <!-- Rocket body -->
  <ellipse cx="16" cy="20" rx="6" ry="10" fill="url(#generateGradient)" filter="url(#generateGlow)"/>
  
  <!-- Rocket tip -->
  <path d="M 16 10 L 10 20 L 22 20 Z" fill="#FFFFFF" opacity="0.9"/>
  
  <!-- Rocket fins -->
  <path d="M 10 24 L 8 28 L 12 26 Z" fill="#FF6B6B" opacity="0.8"/>
  <path d="M 22 24 L 24 28 L 20 26 Z" fill="#FF6B6B" opacity="0.8"/>
  
  <!-- Rocket window -->
  <circle cx="16" cy="18" r="3" fill="#4A90E2" opacity="0.8"/>
  <circle cx="16" cy="18" r="2" fill="#FFFFFF" opacity="0.9"/>
  
  <!-- Flame/exhaust -->
  <path d="M 13 30 Q 16 32 19 30 Q 16 28 13 30" fill="#FF6B6B" opacity="0.7"/>
  <path d="M 14 28 Q 16 30 18 28 Q 16 26 14 28" fill="#FFD93D" opacity="0.8"/>
  
  <!-- Sparkles -->
  <circle cx="8" cy="12" r="1" fill="#FFD93D" opacity="0.8"/>
  <circle cx="24" cy="14" r="1" fill="#FFD93D" opacity="0.8"/>
  <circle cx="6" cy="18" r="0.5" fill="#FFFFFF" opacity="0.9"/>
  <circle cx="26" cy="22" r="0.5" fill="#FFFFFF" opacity="0.9"/>
</svg>
