<?xml version="1.0" encoding="UTF-8"?>
<svg width="32" height="32" viewBox="0 0 32 32" xmlns="http://www.w3.org/2000/svg">
  <defs>
    <linearGradient id="importGradient" x1="0%" y1="0%" x2="100%" y2="100%">
      <stop offset="0%" style="stop-color:#3F51B5;stop-opacity:1" />
      <stop offset="100%" style="stop-color:#303F9F;stop-opacity:1" />
    </linearGradient>
    
    <filter id="importGlow" x="-50%" y="-50%" width="200%" height="200%">
      <feDropShadow dx="0" dy="1" flood-color="#3F51B5" flood-opacity="0.3" stdDeviation="2"/>
    </filter>
  </defs>
  
  <!-- Document -->
  <rect x="8" y="12" width="16" height="16" rx="2" ry="2" 
        fill="url(#importGradient)" filter="url(#importGlow)"/>
  
  <!-- Document fold -->
  <path d="M 20 12 L 20 16 L 24 16 Z" fill="#303F9F"/>
  
  <!-- Document content -->
  <rect x="10" y="16" width="8" height="1" rx="0.5" fill="#FFFFFF" opacity="0.8"/>
  <rect x="10" y="19" width="10" height="1" rx="0.5" fill="#FFFFFF" opacity="0.6"/>
  <rect x="10" y="22" width="9" height="1" rx="0.5" fill="#FFFFFF" opacity="0.6"/>
  <rect x="10" y="25" width="7" height="1" rx="0.5" fill="#FFFFFF" opacity="0.4"/>
  
  <!-- Import arrow -->
  <path d="M 16 10 L 12 6 L 14 6 L 14 2 L 18 2 L 18 6 L 20 6 Z" 
        fill="#FFFFFF" opacity="0.9"/>
  
  <!-- Arrow glow -->
  <circle cx="16" cy="6" r="6" fill="none" stroke="#FFFFFF" stroke-width="0.5" opacity="0.3"/>
  
  <!-- Import lines/waves -->
  <path d="M 4 14 Q 2 16 4 18" stroke="#FFFFFF" stroke-width="1" 
        fill="none" opacity="0.7"/>
  <path d="M 4 18 Q 2 20 4 22" stroke="#FFFFFF" stroke-width="1" 
        fill="none" opacity="0.5"/>
  <path d="M 4 22 Q 2 24 4 26" stroke="#FFFFFF" stroke-width="1" 
        fill="none" opacity="0.3"/>
  
  <!-- Data dots -->
  <circle cx="6" cy="8" r="0.8" fill="#FFFFFF" opacity="0.6"/>
  <circle cx="26" cy="10" r="0.6" fill="#FFFFFF" opacity="0.5"/>
  <circle cx="4" cy="12" r="0.5" fill="#FFFFFF" opacity="0.4"/>
</svg>
